<svg xmlns="http://www.w3.org/2000/svg" xmlns:xlink="http://www.w3.org/1999/xlink" width="600" zoomAndPan="magnify" viewBox="0 0 450 262.499992" height="350" preserveAspectRatio="xMidYMid meet" version="1.0"><defs><clipPath id="id1"><path d="M 104.542969 10.542969 L 345.585938 10.542969 L 345.585938 251.585938 L 104.542969 251.585938 Z M 104.542969 10.542969 " clip-rule="nonzero"/></clipPath><clipPath id="id2"><path d="M 170.234375 56.128906 L 279 56.128906 L 279 201.351562 L 170.234375 201.351562 Z M 170.234375 56.128906 " clip-rule="nonzero"/></clipPath></defs><g clip-path="url(#id1)"><path fill="#004aad" d="M 345.585938 131.066406 C 345.585938 133.035156 345.535156 135.007812 345.4375 136.976562 C 345.34375 138.949219 345.199219 140.914062 345.003906 142.878906 C 344.8125 144.839844 344.570312 146.796875 344.28125 148.75 C 343.992188 150.699219 343.652344 152.640625 343.269531 154.578125 C 342.882812 156.511719 342.453125 158.433594 341.972656 160.347656 C 341.492188 162.261719 340.96875 164.164062 340.394531 166.050781 C 339.824219 167.9375 339.203125 169.808594 338.539062 171.667969 C 337.875 173.523438 337.164062 175.363281 336.410156 177.1875 C 335.65625 179.007812 334.855469 180.8125 334.011719 182.59375 C 333.167969 184.375 332.285156 186.136719 331.355469 187.878906 C 330.421875 189.617188 329.453125 191.332031 328.4375 193.023438 C 327.425781 194.714844 326.367188 196.382812 325.273438 198.023438 C 324.175781 199.660156 323.042969 201.273438 321.867188 202.859375 C 320.691406 204.441406 319.480469 205.996094 318.226562 207.523438 C 316.976562 209.046875 315.6875 210.539062 314.363281 212 C 313.039062 213.460938 311.679688 214.890625 310.285156 216.285156 C 308.890625 217.679688 307.460938 219.039062 306 220.363281 C 304.539062 221.6875 303.046875 222.976562 301.519531 224.226562 C 299.996094 225.480469 298.441406 226.691406 296.859375 227.867188 C 295.273438 229.042969 293.660156 230.179688 292.023438 231.273438 C 290.382812 232.371094 288.714844 233.425781 287.023438 234.4375 C 285.332031 235.453125 283.617188 236.425781 281.878906 237.355469 C 280.136719 238.285156 278.375 239.171875 276.59375 240.015625 C 274.808594 240.855469 273.007812 241.65625 271.183594 242.410156 C 269.363281 243.164062 267.523438 243.875 265.667969 244.539062 C 263.808594 245.203125 261.9375 245.824219 260.050781 246.394531 C 258.160156 246.96875 256.261719 247.492188 254.347656 247.972656 C 252.433594 248.453125 250.511719 248.882812 248.578125 249.269531 C 246.640625 249.652344 244.699219 249.992188 242.75 250.28125 C 240.796875 250.570312 238.839844 250.8125 236.878906 251.003906 C 234.914062 251.199219 232.949219 251.34375 230.976562 251.441406 C 229.007812 251.535156 227.035156 251.585938 225.0625 251.585938 C 223.089844 251.585938 221.121094 251.535156 219.152344 251.441406 C 217.179688 251.34375 215.214844 251.199219 213.25 251.003906 C 211.289062 250.8125 209.332031 250.570312 207.378906 250.28125 C 205.429688 249.992188 203.484375 249.652344 201.550781 249.269531 C 199.617188 248.882812 197.691406 248.453125 195.78125 247.972656 C 193.867188 247.492188 191.964844 246.96875 190.078125 246.394531 C 188.191406 245.824219 186.320312 245.203125 184.460938 244.539062 C 182.605469 243.875 180.765625 243.164062 178.941406 242.410156 C 177.121094 241.65625 175.316406 240.855469 173.535156 240.015625 C 171.75 239.171875 169.992188 238.285156 168.25 237.355469 C 166.511719 236.425781 164.796875 235.453125 163.105469 234.4375 C 161.414062 233.425781 159.746094 232.371094 158.105469 231.273438 C 156.464844 230.179688 154.855469 229.042969 153.269531 227.867188 C 151.6875 226.691406 150.132812 225.480469 148.605469 224.226562 C 147.082031 222.976562 145.589844 221.6875 144.128906 220.363281 C 142.667969 219.039062 141.238281 217.679688 139.84375 216.285156 C 138.449219 214.890625 137.089844 213.460938 135.765625 212 C 134.441406 210.539062 133.152344 209.046875 131.902344 207.523438 C 130.648438 205.996094 129.4375 204.441406 128.261719 202.859375 C 127.085938 201.273438 125.949219 199.660156 124.855469 198.023438 C 123.757812 196.382812 122.703125 194.714844 121.691406 193.023438 C 120.675781 191.332031 119.703125 189.617188 118.773438 187.878906 C 117.84375 186.136719 116.957031 184.375 116.113281 182.59375 C 115.273438 180.8125 114.472656 179.007812 113.71875 177.1875 C 112.964844 175.363281 112.253906 173.523438 111.589844 171.667969 C 110.925781 169.808594 110.304688 167.9375 109.734375 166.050781 C 109.160156 164.164062 108.632812 162.261719 108.15625 160.347656 C 107.675781 158.433594 107.246094 156.511719 106.859375 154.578125 C 106.476562 152.640625 106.136719 150.699219 105.847656 148.75 C 105.558594 146.796875 105.316406 144.839844 105.125 142.878906 C 104.929688 140.914062 104.785156 138.949219 104.6875 136.976562 C 104.59375 135.007812 104.542969 133.035156 104.542969 131.066406 C 104.542969 129.09375 104.59375 127.121094 104.6875 125.152344 C 104.785156 123.179688 104.929688 121.214844 105.125 119.25 C 105.316406 117.289062 105.558594 115.332031 105.847656 113.378906 C 106.136719 111.429688 106.476562 109.488281 106.859375 107.550781 C 107.246094 105.617188 107.675781 103.695312 108.15625 101.78125 C 108.632812 99.867188 109.160156 97.964844 109.734375 96.078125 C 110.304688 94.191406 110.925781 92.320312 111.589844 90.460938 C 112.253906 88.605469 112.964844 86.765625 113.71875 84.945312 C 114.472656 83.121094 115.273438 81.320312 116.113281 79.535156 C 116.957031 77.753906 117.84375 75.992188 118.773438 74.25 C 119.703125 72.511719 120.675781 70.796875 121.691406 69.105469 C 122.703125 67.414062 123.757812 65.746094 124.855469 64.105469 C 125.949219 62.46875 127.085938 60.855469 128.261719 59.269531 C 129.4375 57.6875 130.648438 56.132812 131.902344 54.605469 C 133.152344 53.082031 134.441406 51.589844 135.765625 50.128906 C 137.089844 48.667969 138.449219 47.238281 139.84375 45.84375 C 141.238281 44.449219 142.667969 43.089844 144.128906 41.765625 C 145.589844 40.441406 147.082031 39.152344 148.605469 37.902344 C 150.132812 36.648438 151.6875 35.4375 153.269531 34.261719 C 154.855469 33.085938 156.464844 31.953125 158.105469 30.855469 C 159.746094 29.757812 161.414062 28.703125 163.105469 27.691406 C 164.796875 26.675781 166.511719 25.703125 168.25 24.773438 C 169.992188 23.84375 171.75 22.957031 173.535156 22.117188 C 175.316406 21.273438 177.121094 20.472656 178.941406 19.71875 C 180.765625 18.964844 182.605469 18.253906 184.460938 17.589844 C 186.320312 16.925781 188.191406 16.304688 190.078125 15.734375 C 191.964844 15.160156 193.867188 14.636719 195.78125 14.15625 C 197.691406 13.675781 199.617188 13.246094 201.550781 12.859375 C 203.484375 12.476562 205.429688 12.136719 207.378906 11.847656 C 209.332031 11.558594 211.289062 11.316406 213.25 11.125 C 215.214844 10.929688 217.179688 10.785156 219.152344 10.6875 C 221.121094 10.59375 223.089844 10.542969 225.0625 10.542969 C 227.035156 10.542969 229.007812 10.59375 230.976562 10.6875 C 232.949219 10.785156 234.914062 10.929688 236.878906 11.125 C 238.839844 11.316406 240.796875 11.558594 242.75 11.847656 C 244.699219 12.136719 246.640625 12.476562 248.578125 12.859375 C 250.511719 13.246094 252.433594 13.675781 254.347656 14.15625 C 256.261719 14.636719 258.160156 15.160156 260.050781 15.734375 C 261.9375 16.304688 263.808594 16.925781 265.667969 17.589844 C 267.523438 18.253906 269.363281 18.964844 271.183594 19.71875 C 273.007812 20.472656 274.808594 21.273438 276.59375 22.117188 C 278.375 22.957031 280.136719 23.84375 281.878906 24.773438 C 283.617188 25.703125 285.332031 26.675781 287.023438 27.691406 C 288.714844 28.703125 290.382812 29.757812 292.023438 30.855469 C 293.660156 31.953125 295.273438 33.085938 296.859375 34.261719 C 298.441406 35.4375 299.996094 36.648438 301.519531 37.902344 C 303.046875 39.152344 304.539062 40.441406 306 41.765625 C 307.460938 43.089844 308.890625 44.449219 310.285156 45.84375 C 311.679688 47.238281 313.039062 48.667969 314.363281 50.128906 C 315.6875 51.589844 316.976562 53.082031 318.226562 54.605469 C 319.480469 56.132812 320.691406 57.6875 321.867188 59.269531 C 323.042969 60.855469 324.175781 62.46875 325.273438 64.105469 C 326.367188 65.746094 327.425781 67.414062 328.4375 69.105469 C 329.453125 70.796875 330.421875 72.511719 331.355469 74.25 C 332.285156 75.992188 333.167969 77.753906 334.011719 79.535156 C 334.855469 81.320312 335.65625 83.121094 336.410156 84.945312 C 337.164062 86.765625 337.875 88.605469 338.539062 90.460938 C 339.203125 92.320312 339.824219 94.191406 340.394531 96.078125 C 340.96875 97.964844 341.492188 99.867188 341.972656 101.78125 C 342.453125 103.695312 342.882812 105.617188 343.269531 107.550781 C 343.652344 109.488281 343.992188 111.429688 344.28125 113.378906 C 344.570312 115.332031 344.8125 117.289062 345.003906 119.25 C 345.199219 121.214844 345.34375 123.179688 345.4375 125.152344 C 345.535156 127.121094 345.585938 129.09375 345.585938 131.066406 Z M 345.585938 131.066406 " fill-opacity="1" fill-rule="nonzero"/></g><g clip-path="url(#id2)"><path fill="#ffffff" d="M 264.972656 107.789062 L 260.753906 107.789062 C 261.226562 100.261719 261.679688 80.050781 250.0625 66.960938 C 243.839844 59.953125 235.375 56.613281 224.898438 56.613281 C 224.890625 56.613281 224.882812 56.613281 224.875 56.613281 C 213.941406 56.613281 205.136719 60.078125 198.707031 67.320312 C 187.042969 80.457031 187.402344 101.765625 187.855469 107.789062 L 184.785156 107.789062 C 176.960938 107.789062 170.363281 114.128906 170.363281 121.949219 L 170.363281 187.132812 C 170.363281 194.953125 176.960938 201.105469 184.785156 201.105469 L 264.972656 201.105469 C 272.796875 201.105469 278.738281 194.953125 278.738281 187.132812 L 278.738281 121.949219 C 278.738281 114.128906 272.796875 107.789062 264.972656 107.789062 Z M 234.808594 178.527344 L 216.1875 178.527344 L 219.152344 157.746094 C 214.6875 155.597656 211.578125 150.933594 211.578125 145.644531 C 211.578125 138.296875 217.535156 132.269531 224.878906 132.269531 C 232.226562 132.269531 238.179688 138.1875 238.179688 145.535156 C 238.179688 150.464844 235.460938 155 231.472656 157.289062 Z M 247.945312 107.789062 L 200.664062 107.789062 C 200.363281 104.777344 199.28125 85.503906 208.277344 75.410156 C 212.234375 70.96875 217.667969 68.652344 224.882812 68.652344 C 224.890625 68.652344 224.894531 68.652344 224.898438 68.652344 C 231.648438 68.652344 236.753906 70.847656 240.496094 75.050781 C 249.449219 85.105469 248.253906 104.777344 247.945312 107.789062 Z M 247.945312 107.789062 " fill-opacity="1" fill-rule="nonzero"/></g></svg>